<mxfile host="Electron" modified="2024-11-28T04:49:05.360Z" agent="Mozilla/5.0 (X11; Linux x86_64) AppleWebKit/537.36 (KHTML, like Gecko) draw.io/24.6.1 Chrome/124.0.6367.207 Electron/30.0.6 Safari/537.36" etag="E_3cXOEEUbwj7ZuX5pth" version="24.6.1" type="device">
  <diagram name="Page-1" id="JFPJkxZZSjxiJD6og031">
    <mxGraphModel dx="939" dy="1730" grid="1" gridSize="10" guides="1" tooltips="1" connect="1" arrows="1" fold="1" page="1" pageScale="1" pageWidth="850" pageHeight="1100" math="0" shadow="0">
      <root>
        <mxCell id="0" />
        <mxCell id="1" parent="0" />
        <mxCell id="_TZs-UMcsAIsMrrE9qfW-3" value="Include Module :&lt;div&gt;Celestial Objects&lt;/div&gt;" style="ellipse;whiteSpace=wrap;html=1;fontSize=9;" vertex="1" parent="1">
          <mxGeometry x="230" y="-600" width="120" height="60" as="geometry" />
        </mxCell>
        <mxCell id="_TZs-UMcsAIsMrrE9qfW-4" value="&lt;div&gt;Manage&lt;/div&gt;&lt;div&gt;Celestial Ojects&lt;/div&gt;" style="ellipse;whiteSpace=wrap;html=1;fontSize=9;" vertex="1" parent="1">
          <mxGeometry x="400" y="-660" width="120" height="60" as="geometry" />
        </mxCell>
        <mxCell id="_TZs-UMcsAIsMrrE9qfW-5" value="Use Example&lt;div&gt;Celestial Objects&lt;/div&gt;" style="ellipse;whiteSpace=wrap;html=1;fontSize=9;" vertex="1" parent="1">
          <mxGeometry x="400" y="-460" width="120" height="60" as="geometry" />
        </mxCell>
        <mxCell id="_TZs-UMcsAIsMrrE9qfW-6" value="Access Celestial Objects&lt;div&gt;Catalogs Directly&lt;/div&gt;" style="ellipse;whiteSpace=wrap;html=1;fontSize=9;" vertex="1" parent="1">
          <mxGeometry x="400" y="-540" width="120" height="60" as="geometry" />
        </mxCell>
        <mxCell id="_TZs-UMcsAIsMrrE9qfW-7" value="Save to&lt;div&gt;Database&lt;/div&gt;" style="ellipse;whiteSpace=wrap;html=1;fontSize=9;" vertex="1" parent="1">
          <mxGeometry x="680" y="-770" width="90" height="40" as="geometry" />
        </mxCell>
        <mxCell id="_TZs-UMcsAIsMrrE9qfW-8" value="Save&lt;div&gt;Celestial Objects&lt;/div&gt;" style="ellipse;whiteSpace=wrap;html=1;fontSize=9;" vertex="1" parent="1">
          <mxGeometry x="550" y="-710" width="90" height="40" as="geometry" />
        </mxCell>
        <mxCell id="_TZs-UMcsAIsMrrE9qfW-9" value="Create&lt;div&gt;Celestial Objects&lt;/div&gt;" style="ellipse;whiteSpace=wrap;html=1;fontSize=9;" vertex="1" parent="1">
          <mxGeometry x="580" y="-650" width="90" height="40" as="geometry" />
        </mxCell>
        <mxCell id="_TZs-UMcsAIsMrrE9qfW-10" value="Load&lt;div&gt;Celestial Objects&lt;/div&gt;" style="ellipse;whiteSpace=wrap;html=1;fontSize=9;" vertex="1" parent="1">
          <mxGeometry x="550" y="-590" width="90" height="40" as="geometry" />
        </mxCell>
        <mxCell id="_TZs-UMcsAIsMrrE9qfW-11" value="" style="endArrow=block;endSize=16;endFill=0;html=1;rounded=0;exitX=1;exitY=0;exitDx=0;exitDy=0;entryX=0;entryY=1;entryDx=0;entryDy=0;" edge="1" parent="1" source="_TZs-UMcsAIsMrrE9qfW-4" target="_TZs-UMcsAIsMrrE9qfW-8">
          <mxGeometry width="160" relative="1" as="geometry">
            <mxPoint x="560" y="-640" as="sourcePoint" />
            <mxPoint x="620" y="-700" as="targetPoint" />
          </mxGeometry>
        </mxCell>
        <mxCell id="_TZs-UMcsAIsMrrE9qfW-12" value="" style="endArrow=block;endSize=16;endFill=0;html=1;rounded=0;exitX=1;exitY=0.5;exitDx=0;exitDy=0;entryX=0;entryY=0.5;entryDx=0;entryDy=0;" edge="1" parent="1" source="_TZs-UMcsAIsMrrE9qfW-4" target="_TZs-UMcsAIsMrrE9qfW-9">
          <mxGeometry width="160" relative="1" as="geometry">
            <mxPoint x="520" y="-580" as="sourcePoint" />
            <mxPoint x="637" y="-629" as="targetPoint" />
          </mxGeometry>
        </mxCell>
        <mxCell id="_TZs-UMcsAIsMrrE9qfW-13" value="" style="endArrow=block;endSize=16;endFill=0;html=1;rounded=0;exitX=1;exitY=1;exitDx=0;exitDy=0;entryX=0;entryY=0;entryDx=0;entryDy=0;" edge="1" parent="1" source="_TZs-UMcsAIsMrrE9qfW-4" target="_TZs-UMcsAIsMrrE9qfW-10">
          <mxGeometry width="160" relative="1" as="geometry">
            <mxPoint x="520" y="-561" as="sourcePoint" />
            <mxPoint x="610" y="-550" as="targetPoint" />
          </mxGeometry>
        </mxCell>
        <mxCell id="_TZs-UMcsAIsMrrE9qfW-14" value="&amp;lt;&amp;lt;include&amp;gt;&amp;gt;" style="html=1;verticalAlign=bottom;labelBackgroundColor=none;endArrow=open;endFill=0;dashed=1;rounded=0;exitX=0;exitY=1;exitDx=0;exitDy=0;entryX=1;entryY=0;entryDx=0;entryDy=0;" edge="1" parent="1" source="_TZs-UMcsAIsMrrE9qfW-10" target="_TZs-UMcsAIsMrrE9qfW-6">
          <mxGeometry x="-0.4952" y="32" width="160" relative="1" as="geometry">
            <mxPoint x="600" y="-480" as="sourcePoint" />
            <mxPoint x="760" y="-480" as="targetPoint" />
            <mxPoint as="offset" />
          </mxGeometry>
        </mxCell>
        <mxCell id="_TZs-UMcsAIsMrrE9qfW-15" value="&amp;lt;&amp;lt;extend&amp;gt;&amp;gt;" style="html=1;verticalAlign=bottom;labelBackgroundColor=none;endArrow=open;endFill=0;dashed=1;rounded=0;exitX=1;exitY=0;exitDx=0;exitDy=0;entryX=0;entryY=1;entryDx=0;entryDy=0;" edge="1" parent="1" source="_TZs-UMcsAIsMrrE9qfW-8" target="_TZs-UMcsAIsMrrE9qfW-7">
          <mxGeometry x="0.2576" y="-27" width="160" relative="1" as="geometry">
            <mxPoint x="600" y="-760" as="sourcePoint" />
            <mxPoint x="760" y="-760" as="targetPoint" />
            <mxPoint as="offset" />
          </mxGeometry>
        </mxCell>
        <mxCell id="_TZs-UMcsAIsMrrE9qfW-16" value="Load from&lt;div&gt;Database&lt;/div&gt;" style="ellipse;whiteSpace=wrap;html=1;fontSize=9;" vertex="1" parent="1">
          <mxGeometry x="680" y="-530" width="90" height="40" as="geometry" />
        </mxCell>
        <mxCell id="_TZs-UMcsAIsMrrE9qfW-17" value="&amp;lt;&amp;lt;extend&amp;gt;&amp;gt;" style="html=1;verticalAlign=bottom;labelBackgroundColor=none;endArrow=open;endFill=0;dashed=1;rounded=0;exitX=1;exitY=1;exitDx=0;exitDy=0;entryX=0.038;entryY=0.253;entryDx=0;entryDy=0;entryPerimeter=0;" edge="1" parent="1" source="_TZs-UMcsAIsMrrE9qfW-10" target="_TZs-UMcsAIsMrrE9qfW-16">
          <mxGeometry x="0.5925" y="15" width="160" relative="1" as="geometry">
            <mxPoint x="692" y="-578" as="sourcePoint" />
            <mxPoint x="758" y="-610" as="targetPoint" />
            <mxPoint as="offset" />
          </mxGeometry>
        </mxCell>
        <mxCell id="_TZs-UMcsAIsMrrE9qfW-18" value="" style="endArrow=open;endFill=1;endSize=12;html=1;rounded=0;exitX=1;exitY=0.5;exitDx=0;exitDy=0;entryX=0;entryY=0.5;entryDx=0;entryDy=0;" edge="1" parent="1" source="_TZs-UMcsAIsMrrE9qfW-3" target="_TZs-UMcsAIsMrrE9qfW-5">
          <mxGeometry width="160" relative="1" as="geometry">
            <mxPoint x="320" y="-670" as="sourcePoint" />
            <mxPoint x="410" y="-710" as="targetPoint" />
          </mxGeometry>
        </mxCell>
        <mxCell id="_TZs-UMcsAIsMrrE9qfW-19" value="" style="endArrow=open;endFill=1;endSize=12;html=1;rounded=0;exitX=1;exitY=0.5;exitDx=0;exitDy=0;entryX=0;entryY=1;entryDx=0;entryDy=0;" edge="1" parent="1" source="_TZs-UMcsAIsMrrE9qfW-3" target="_TZs-UMcsAIsMrrE9qfW-4">
          <mxGeometry width="160" relative="1" as="geometry">
            <mxPoint x="330" y="-670" as="sourcePoint" />
            <mxPoint x="420" y="-710" as="targetPoint" />
          </mxGeometry>
        </mxCell>
        <mxCell id="_TZs-UMcsAIsMrrE9qfW-20" value="" style="endArrow=open;endFill=1;endSize=12;html=1;rounded=0;exitX=1;exitY=0.5;exitDx=0;exitDy=0;entryX=0;entryY=0;entryDx=0;entryDy=0;" edge="1" parent="1" source="_TZs-UMcsAIsMrrE9qfW-3" target="_TZs-UMcsAIsMrrE9qfW-6">
          <mxGeometry width="160" relative="1" as="geometry">
            <mxPoint x="330" y="-660" as="sourcePoint" />
            <mxPoint x="420" y="-700" as="targetPoint" />
          </mxGeometry>
        </mxCell>
      </root>
    </mxGraphModel>
  </diagram>
</mxfile>
